<?xml version="1.0" ?><svg enable-background="new 0 0 24 24" id="Layer_1" version="1.1" viewBox="0 0 24 24" xml:space="preserve" xmlns="http://www.w3.org/2000/svg" xmlns:xlink="http://www.w3.org/1999/xlink"><g><path d="M19.6811523,18.0336914C19.8994141,17.5654297,20,16.9091797,20,16   c0-3.246582-1.4956055-5.1196289-2.6972656-6.625C16.5751953,8.4633789,16,7.7431641,16,7l0.0009766-0.2329102   c0.0078125-1.3803711,0.0239258-4.253418-1.5019531-5.7880859C13.8530273,0.3295898,13.012207,0,12,0   C9.8994141,0,8.5,1.0205078,8.5,6c0,1.3706055-0.5766602,2.4931641-1.1870117,3.6816406   c-0.2675781,0.5209961-0.5444336,1.0600586-0.7763672,1.6298828C6.074707,12.4472656,5,15.2270508,5,16.5   c0,0.0810547,0.0195312,0.1606445,0.0571289,0.2324219l3.5390625,6.7485352   c0.0761719,0.1450195,0.2211914,0.2397461,0.3837891,0.2602539C9,23.7436523,9.0200195,23.7451172,9.0400391,23.7451172   c0.1420898,0,0.28125-0.0625,0.3769531-0.1694336C9.6391602,23.328125,11.1118164,23,12,23h3.3920898   c0.1303711,0,0.2553711-0.0507812,0.3486328-0.1416016l4.1079102-4c0.1982422-0.1928711,0.2021484-0.5092773,0.0097656-0.7070312   C19.8066406,18.0981445,19.7460938,18.059082,19.6811523,18.0336914z" fill="#1A1A1A"/><path d="M7.3129883,9.9316406C7.9233398,8.7431641,8.5,7.6206055,8.5,6.25   c0-4.9794922,1.3994141-6,3.5-6c1.012207,0,1.8530273,0.3295898,2.4990234,0.9790039   c1.3337402,1.3413696,1.4893188,3.704895,1.5021362,5.2008057c0.0008545-1.4671631-0.086792-4.0272827-1.5021362-5.4508057   C13.8530273,0.3295898,13.012207,0,12,0C9.8994141,0,8.5,1.0205078,8.5,6c0,1.3706055-0.5766602,2.4931641-1.1870117,3.6816406   c-0.2675781,0.5209961-0.5444336,1.0600586-0.7763672,1.6298828C6.074707,12.4472656,5,15.2270508,5,16.5   c0,0.0227661,0.0130005,0.0428467,0.0160522,0.0652466c0.0847168-1.3361206,1.0783691-3.9163818,1.5205688-5.0037231   C6.7685547,10.9916992,7.0454102,10.4526367,7.3129883,9.9316406z" fill="#FFFFFF" opacity="0.2"/><path d="M19.8583984,18.4013672c0.0620117,0.0637817,0.0961304,0.1410522,0.1174316,0.2213745   c0.041687-0.163208,0.0084839-0.3419189-0.1174316-0.4713745c-0.0302734-0.0311279-0.0682373-0.0473022-0.1035767-0.0687866   c-0.0244141,0.0672607-0.0453491,0.1403198-0.0736694,0.2011108C19.7460938,18.309082,19.8066406,18.3481445,19.8583984,18.4013672   z" fill="#0099D8"/><path d="M16,7.25c0,0.7431641,0.5751953,1.4633789,1.3027344,2.375   c1.1904907,1.491394,2.664978,3.3479004,2.6923218,6.5393066C19.9959106,16.107605,20,16.0587769,20,16   c0-3.246582-1.4956055-5.1196289-2.6972656-6.625c-0.725769-0.9094238-1.2989502-1.628418-1.3017578-2.3696289   c0,0.003479,0,0.0082397,0,0.0117188L16,7.25z" fill="#FFFFFF" opacity="0.2"/><path d="M16,7c0,0.0018311,0.0009766,0.00354,0.0009766,0.0053711   c0.0009766-0.1713257,0.0019531-0.3643188,0.0001831-0.5755615c-0.000061,0.114563,0.0003662,0.2373047-0.0001831,0.3372803L16,7z" fill="#0099D8"/><g><path d="M16.1294117,16.8117638c-0.0119629-2.4346304-0.3427773-5.1733255-2.2666664-9.1058807    c-0.9520874,0.6437373-2.6998434,1.1529412-2.9098043,1.1529412c-0.37854,0-1.2050161-0.2702007-1.8122549-0.8062725    c-0.2496338,0.7364502-0.5952148,1.418335-0.9380493,2.0861206c-0.2578125,0.5014648-0.5244141,1.0205078-0.7392578,1.5498047    c-0.6043701,1.4848633-1.2945557,3.4396362-1.4338379,4.4784546c0.4229736,0.2818604,0.7179565,0.8918457,1.0437012,1.5733032    c0.3374023,0.7060547,0.7197266,1.5063477,1.2124023,1.8496094c0.9015503,0.6276855,1.3689575,1.5230103,1.4914551,2.3365479    c0.3430786,0.0341187,0.7755127,0.0638428,1.2668457,0.0638428c1.2199097,0,2.8737812-0.2477417,4.0972309-0.9902344    C15.2098408,19.6772461,15.4421558,17.5555382,16.1294117,16.8117638z" fill="#FFFFFF"/></g><path d="M19.9950562,16.1643066c-0.0122681,0.8200073-0.1097412,1.4313965-0.3139038,1.8693848   c0.0269775,0.0105591,0.0485229,0.0335693,0.0736694,0.0488892C19.918396,17.6317139,20,17.0411987,20,16.25   C20,16.2199097,19.9953003,16.1941528,19.9950562,16.1643066z" fill="#0099D8"/><path d="M9.7770996,21.9263916c0.3430786,0.0341187,0.7755127,0.0638428,1.2668457,0.0638428   c1.2199097,0,2.8737793-0.2477417,4.097229-0.9902344v-0.25c-1.2234497,0.7424927-2.8773193,0.9902344-4.097229,0.9902344   c-0.491333,0-0.9993038-0.0342407-1.3423824-0.0683594" opacity="0.1"/><path d="M15.7438536,22.6083984C15.6505919,22.6992188,15.5255919,22.75,15.3952208,22.75h-3.3920898   c-0.8881836,0-2.3608398,0.328125-2.5830078,0.5756836C9.32442,23.4326172,9.1852598,23.4951172,9.04317,23.4951172   c-0.0200195,0-0.0400391-0.0014648-0.0600586-0.0039062c-0.1625977-0.0205078-0.3076172-0.1152344-0.3837891-0.2602539   l-3.5390625-6.7485352c-0.0270386-0.0516357-0.0332642-0.1098633-0.0410767-0.1671753   C5.015399,16.3747559,5.0031309,16.4457397,5.0031309,16.5c0,0.0810547,0.0195312,0.1606445,0.0571289,0.2324219   l3.5390625,6.7485352c0.0761719,0.1450195,0.2211914,0.2397461,0.3837891,0.2602539   c0.0200195,0.0024414,0.0400391,0.0039062,0.0600586,0.0039062c0.1420898,0,0.28125-0.0625,0.3769531-0.1694336   C9.6422911,23.328125,11.1149473,23,12.0031309,23h3.3920898c0.1303711,0,0.2553711-0.0507812,0.3486328-0.1416016l4.1079092-4   c0.1343384-0.1306763,0.171936-0.3168945,0.1271973-0.4856567c-0.0220337,0.0861206-0.0587158,0.1690674-0.1271973,0.2356567   L15.7438536,22.6083984z" opacity="0.3"/><path d="M20.9262695,19.0742188c-0.2070312-0.1357422-0.4213867-0.2763672-0.5727539-0.4277344   c-0.0883789-0.0883789-0.0478516-0.4970703-0.0263672-0.7167969c0.0415039-0.421875,0.0844727-0.8574219-0.1992188-1.1704102   C20.0209961,16.6411133,19.824707,16.5,19.5,16.5c-0.2675781,0-0.4628906,0.2119141-0.4746094,0.4790039   C19.0250854,16.9862671,19.0280762,16.9927979,19.0280762,17H17c0-0.2763672-0.2236328-0.5-0.5-0.5   c-1.4829102,0-1.5,5.4448242-1.5058594,5.5639648c-0.027832,0.2983398-0.0932617,0.9980469,0.3544922,1.4892578   C15.6186523,23.8496094,16.0058594,24,16.5,24c1.2978516,0,1.9272461-0.6689453,2.5356445-1.3154297   c0.1025391-0.109375,0.2075195-0.2207031,0.3178711-0.3310547c0.253418-0.253418,0.7490234-0.434082,1.1865234-0.59375   C21.2578125,21.4975586,22,21.2265625,22,20.5C22,19.7788086,21.4047852,19.3881836,20.9262695,19.0742188z" fill="#FDB515"/><path d="M8.2856445,19.5898438c-0.4926758-0.3432617-0.875-1.1435547-1.2124023-1.8496094   C6.6269531,16.8066406,6.2412109,16,5.5,16c-0.9355469,0-1.1401367,0.8408203-1.2495117,1.2924805   c-0.0302734,0.1245117-0.0761719,0.3120117-0.0805664,0.3339844c-0.0742188,0.0458984-0.3535156,0.1010742-0.5380859,0.1376953   C3.0214844,17.8852539,2,18.0874023,2,19c0,0.265625,0.0395508,0.4912109,0.0830078,0.7260742   C2.1601562,20.1420898,2.2329102,20.534668,2.0161133,21.375C2.0053711,21.4155273,2,21.4580078,2,21.5   c0,1.2021484,1.8671875,1.3579102,2.9829102,1.4506836c0.1855469,0.015625,0.3398438,0.0273438,0.4389648,0.0429688   c0.1538086,0.0244141,0.4760742,0.1728516,0.7875977,0.3164062C6.8759766,23.6176758,7.7055664,24,8.5,24   c0.5712891,0,1.0283203-0.3691406,1.2226562-0.9873047C10.0249023,22.0493164,9.6245117,20.5219727,8.2856445,19.5898438z" fill="#FDB515"/><path d="M3.5531006,18.0141602c0.190918-0.0366211,0.4799194-0.0917969,0.5567017-0.1376953   c0.0045166-0.0219727,0.052002-0.2094727,0.083313-0.3339844C4.3062744,17.0908203,4.5179443,16.25,5.4858398,16.25   c0.7668457,0,1.1659546,0.8066406,1.6276855,1.7402344c0.3490601,0.7060547,0.7446289,1.5063477,1.2543335,1.8496094   c0.5077515,0.3416748,0.8823853,0.7640381,1.1412354,1.2085571c-0.2467041-0.53479-0.6415405-1.0534668-1.2234497-1.4585571   c-0.4926758-0.3432617-0.875-1.1435547-1.2124023-1.8496094C6.6269531,16.8066406,6.2412109,16,5.5,16   c-0.9355469,0-1.1401367,0.8408203-1.2495117,1.2924805c-0.0302734,0.1245117-0.0761719,0.3120117-0.0805664,0.3339844   c-0.0742188,0.0458984-0.3535156,0.1010742-0.5380859,0.1376953c-0.5300903,0.1051636-1.3684082,0.2727661-1.5802612,0.9125977   C2.3828125,18.2400513,3.0843506,18.1040649,3.5531006,18.0141602z" fill="#FFFFFF" opacity="0.2"/><path d="M19.5,15.5c-0.0958252,0-0.1801758,0.0340576-0.2562256,0.0806885l-3.338623-5.4631958   c-0.364563-1.0300293-0.8309326-2.1226807-1.4608154-3.3464966c-0.1259766-0.2446289-0.4272461-0.3417969-0.6733398-0.2158203   c-0.2451172,0.1264648-0.3417969,0.4282227-0.215332,0.6738281c2.2573242,4.3867188,2.4443359,7.125,2.4453125,9.7431641   c-0.0058594,0.1049805-0.0415039,1.0415039,0.4970703,1.6113281C16.7558594,18.855957,17.1020508,19,17.5,19l0.1762695,0.0009766   c0.0561523,0.0004883,0.112793,0.0009766,0.1704102,0.0009766c0.5083008,0,1.0581055-0.0385742,1.4882812-0.465332   C19.7949219,18.0805664,20,17.2983398,20,16C20,15.7236328,19.7763672,15.5,19.5,15.5z" fill="#1A1A1A"/><path d="M19.3349609,18.2866211c-0.4301758,0.4267578-0.9799805,0.465332-1.4882812,0.465332   c-0.0576172,0-0.1142578-0.0004883-0.1704102-0.0009766L17.5,18.75c-0.3979492,0-0.7441406-0.144043-1.0019531-0.4165039   c-0.4032593-0.4266357-0.4845581-1.0585938-0.4974976-1.3934326c0,0.0106201,0.0004272,0.0214844,0.0004272,0.0321045   c-0.0058594,0.1049805-0.0415039,1.0415039,0.4970703,1.6113281C16.7558594,18.855957,17.1020508,19,17.5,19l0.1762695,0.0009766   c0.0561523,0.0004883,0.112793,0.0009766,0.1704102,0.0009766c0.5083008,0,1.0581055-0.0385742,1.4882812-0.465332   C19.7949219,18.0805664,20,17.2983398,20,16c0-0.0160522-0.0076904-0.0296021-0.0091553-0.0452881   C19.9682007,17.121521,19.7681885,17.8571167,19.3349609,18.2866211z" opacity="0.3"/><path d="M13,3.0415039c-0.5795898,0-1,0.6220703-1,1.4794922C12,5.3779297,12.4204102,6,13,6   s1-0.6220703,1-1.4790039C14,3.6635742,13.5795898,3.0415039,13,3.0415039z" fill="#FFFFFF"/><ellipse cx="13" cy="4.8882351" rx="0.453567" ry="0.8882353"/><path d="M10,3.0415039c-0.5795898,0-1,0.6220703-1,1.4794922C9,5.3779297,9.4204102,6,10,6s1-0.6220703,1-1.4790039   C11,3.6635742,10.5795898,3.0415039,10,3.0415039z" fill="#FFFFFF"/><linearGradient gradientUnits="userSpaceOnUse" id="SVGID_1_" x1="10.3834991" x2="17.1650543" y1="6.8097382" y2="13.5912933"><stop offset="0" style="stop-color:#000000;stop-opacity:0.1"/><stop offset="1" style="stop-color:#000000;stop-opacity:0"/></linearGradient><path d="M13.8018799,7.7424927c-0.9630737,0.6259155-2.6430664,1.116333-2.848938,1.116333   c-0.37854,0-1.2050171-0.2702026-1.8122559-0.8062744l6.7815552,6.7815552   C15.7612305,12.8980713,15.253479,10.6957397,13.8018799,7.7424927z" fill="url(#SVGID_1_)"/><ellipse cx="10" cy="4.8705883" rx="0.4445557" ry="0.8705882"/><path d="M11.5981445,5.0097656C11.565918,5.003418,11.5327148,5,11.5,5c-1.0751953,0-3,1.0083008-3,2   c0,0.9370117,1.8911133,2,2.5,2c0.2954102,0,3.5-1.112793,3.5-2C14.5,5.6918945,12.2788086,5.1459961,11.5981445,5.0097656z" fill="#FDB515"/><path d="M11.5981445,5.0097656C11.565918,5.003418,11.5327148,5,11.5,5c-1.0751953,0-3,1.0083008-3,2   c0,0.9370117,1.8911133,2,2.5,2c0.2954102,0,3.5-1.112793,3.5-2C14.5,5.6918945,12.2788086,5.1459961,11.5981445,5.0097656z" fill="#FDB515"/><path d="M20.5400391,21.5097656c-0.4375,0.159668-0.9331055,0.340332-1.1865234,0.59375   c-0.1103516,0.1103516-0.215332,0.2216797-0.3178711,0.3310547C18.4272461,23.0810547,17.7978516,23.75,16.5,23.75   c-0.4941406,0-0.8813477-0.1503906-1.1513672-0.4467773c-0.2931519-0.3215942-0.3590698-0.7246704-0.3668213-1.053833   c-0.0216064,0.3453979-0.0092163,0.8912964,0.3668213,1.303833C15.6186523,23.8496094,16.0058594,24,16.5,24   c1.2978516,0,1.9272461-0.6689453,2.5356445-1.3154297c0.1025391-0.109375,0.2075195-0.2207031,0.3178711-0.3310547   c0.253418-0.253418,0.7490234-0.434082,1.1865234-0.59375C21.2578125,21.4975586,22,21.2265625,22,20.5   c0-0.0362549-0.0172729-0.062439-0.0202026-0.0970459C21.8798218,21.0128784,21.2033691,21.2674561,20.5400391,21.5097656z" opacity="0.1"/><path d="M9.7226562,22.7626953C9.5283203,23.3808594,9.0712891,23.75,8.5,23.75   c-0.7944336,0-1.6240234-0.3823242-2.2905273-0.6899414c-0.3115234-0.1435547-0.6337891-0.2919922-0.7875977-0.3164062   c-0.0991211-0.015625-0.253418-0.0273438-0.4389648-0.0429688c-1.0805054-0.0898438-2.8504639-0.2475586-2.9620972-1.3487549   C2.0186157,21.3605957,2.0183716,21.366272,2.0161133,21.375C2.0053711,21.4155273,2,21.4580078,2,21.5   c0,1.2021484,1.8671875,1.3579102,2.9829102,1.4506836c0.1855469,0.015625,0.3398438,0.0273438,0.4389648,0.0429688   c0.1538086,0.0244141,0.4760742,0.1728516,0.7875977,0.3164062C6.8759766,23.6176758,7.7055664,24,8.5,24   c0.5712891,0,1.0283203-0.3691406,1.2226562-0.9873047c0.0790405-0.2519531,0.1069946-0.543396,0.0856934-0.8517456   C9.8029175,22.375061,9.7796631,22.5809326,9.7226562,22.7626953z" opacity="0.1"/><path d="M10.9890747,8.75c-0.5604858,0-2.1712646-0.8812256-2.4877319-1.7559814   C8.5013428,6.9960327,8.5,6.9979858,8.5,7c0,0.9370117,1.8911133,2,2.5,2c0.2954102,0,3.5-1.112793,3.5-2   c0-0.0193481-0.010498-0.0349121-0.0114746-0.0539551C14.0139771,7.8013306,11.2648315,8.75,10.9890747,8.75z" opacity="0.1"/><linearGradient gradientUnits="userSpaceOnUse" id="SVGID_2_" x1="17.8615036" x2="21.7587662" y1="17.2200394" y2="21.1173019"><stop offset="0" style="stop-color:#000000;stop-opacity:0.1"/><stop offset="1" style="stop-color:#000000;stop-opacity:0"/></linearGradient><path d="M20.9262695,19.0742188c-0.2070312-0.1357422-0.4213867-0.2763672-0.5727539-0.4277344   c-0.0883789-0.0883789-0.0478516-0.4970703-0.0263672-0.7167969c0.0415039-0.421875,0.0844727-0.8574219-0.1992188-1.1704102   c-0.0362549-0.0401001-0.0941162-0.0776978-0.1567383-0.1129761c-0.0628662,0.9104004-0.2607422,1.5180054-0.6362305,1.8903198   c-0.4301758,0.4267578-0.9799805,0.465332-1.4882812,0.465332c-0.0576172,0-0.1142578-0.0004883-0.1704102-0.0009766L17.5,19   c-0.3979492,0-0.7441406-0.144043-1.0019531-0.4165039l3.4207764,3.4207764   c0.199646-0.0893555,0.4161987-0.1696777,0.6212158-0.2445068C21.2578125,21.4975586,22,21.2265625,22,20.5   C22,19.7788086,21.4047852,19.3881836,20.9262695,19.0742188z" fill="url(#SVGID_2_)"/><linearGradient gradientUnits="userSpaceOnUse" id="SVGID_3_" x1="5.2450533" x2="23.0856457" y1="10.0596561" y2="18.3788605"><stop offset="0" style="stop-color:#FFFFFF;stop-opacity:0.2"/><stop offset="1" style="stop-color:#FFFFFF;stop-opacity:0"/></linearGradient><path d="M20.9262695,19.0742188c-0.2070312-0.1357422-0.4213867-0.2763672-0.5727539-0.4277344   c-0.0883789-0.0883789-0.0478516-0.4970703-0.0263672-0.7167969c0.0415039-0.421875,0.0844727-0.8574219-0.1992188-1.1704102   c-0.0341797-0.0377197-0.0947266-0.0740967-0.1483765-0.111145C19.992981,16.4475708,20,16.2325439,20,16   c0-3.246582-1.4956055-5.1196289-2.6972656-6.625C16.5751953,8.4633789,16,7.7431641,16,7l0.0009766-0.2329102   c0.0078125-1.3803711,0.0239258-4.253418-1.5019531-5.7880859C13.8530273,0.3295898,13.012207,0,12,0   C9.8994141,0,8.5,1.0205078,8.5,6c0,1.3706055-0.5766602,2.4931641-1.1870117,3.6816406   c-0.2675781,0.5209961-0.5444336,1.0600586-0.7763672,1.6298828c-0.4187622,1.0296631-1.3328247,3.399231-1.5014648,4.7835693   c-0.5404663,0.227417-0.6967773,0.8345337-0.784668,1.1973877c-0.0302734,0.1245117-0.0761719,0.3120117-0.0805664,0.3339844   c-0.0742188,0.0458984-0.3535156,0.1010742-0.5380859,0.1376953C3.0214844,17.8852539,2,18.0874023,2,19   c0,0.265625,0.0395508,0.4912109,0.0830078,0.7260742C2.1601562,20.1420898,2.2329102,20.534668,2.0161133,21.375   C2.0053711,21.4155273,2,21.4580078,2,21.5c0,1.2021484,1.8671875,1.3579102,2.9829102,1.4506836   c0.1855469,0.015625,0.3398438,0.0273438,0.4389648,0.0429688c0.1538086,0.0244141,0.4760742,0.1728516,0.7875977,0.3164062   C6.8759766,23.6176758,7.7055664,24,8.5,24c0.3419189,0,0.633728-0.1454468,0.8619385-0.3841553   c0.0174561-0.0148315,0.0396729-0.0229492,0.0550537-0.0401611C9.6391602,23.328125,11.1118164,23,12,23h3.0606689   c0.0551147,0.192749,0.1345215,0.3848877,0.2879639,0.5532227C15.6186523,23.8496094,16.0058594,24,16.5,24   c1.2978516,0,1.9272461-0.6689453,2.5356445-1.3154297c0.1025391-0.109375,0.2075195-0.2207031,0.3178711-0.3310547   c0.253418-0.253418,0.7490234-0.434082,1.1865234-0.59375C21.2578125,21.4975586,22,21.2265625,22,20.5   C22,19.7788086,21.4047852,19.3881836,20.9262695,19.0742188z" fill="url(#SVGID_3_)"/></g><g/><g/><g/><g/><g/><g/><g/><g/><g/><g/><g/><g/><g/><g/><g/></svg>