<?xml version="1.0" ?><svg enable-background="new 0 0 24 24" id="Layer_1" version="1.1" viewBox="0 0 24 24" xml:space="preserve" xmlns="http://www.w3.org/2000/svg" xmlns:xlink="http://www.w3.org/1999/xlink"><g><path d="M18.0031376,12.5000019c0-2.1514893,1.2384624-4.0093994,3.038805-4.9132085   c-1.6071281-1.505188-3.6721077-1.586792-4.0390015-1.586792c-0.9752884,0-1.6712255,0.2641602-2.3437204,0.5195312   c-0.651495,0.2475586-1.2668505,0.480957-2.1571617,0.480957s-1.5056658-0.2333984-2.1571608-0.480957   c-0.6724958-0.2553711-1.368433-0.5195312-2.3437214-0.5195312C7.3867984,6.0000014,2,6.1962905,2,13.0004902   c0,5.5639648,3.7971311,10.9995117,6.0011768,10.9995117c1.3493853,0,2.1254168-0.3154297,2.8106098-0.59375   c0.5352612-0.2172852,0.9982424-0.4052734,1.6902723-0.4052734c0.6920309,0,1.1550121,0.1879883,1.6902733,0.4057617   c0.6851931,0.277832,1.4612236,0.5932617,2.8101206,0.5932617c1.5441265,0,3.7429676-2.6710205,4.9975471-6.1817627   C19.6316776,17.2047138,18.0031376,15.0596943,18.0031376,12.5000019z" fill="#1A1A1A"/><path d="M12.0022621,6c2.929637-0.5999999,5.0296059-3.0148857,5.0003777-6.0000014   C14.0730009,0.5999985,11.973033,3.0148842,12.0022621,6z" fill="#1A1A1A" id="XMLID_1339_"/><path d="M8.0011768,6.2500014c0.9752884,0,1.6712255,0.2641602,2.3437214,0.5195312   c0.651495,0.2475586,1.2668495,0.480957,2.1571608,0.480957s1.5056667-0.2333984,2.1571617-0.480957   c0.6724949-0.2553711,1.368432-0.5195312,2.3437204-0.5195312c0.3536472,0,2.2817593,0.0888672,3.8601322,1.4424438   c0.0608025-0.0334473,0.1167221-0.0744629,0.1788692-0.1056519c-1.6071281-1.505188-3.6721077-1.586792-4.0390015-1.586792   c-0.9752884,0-1.6712255,0.2641602-2.3437204,0.5195312c-0.651495,0.2475586-1.2668505,0.480957-2.1571617,0.480957   s-1.5056658-0.2333984-2.1571608-0.480957c-0.6724958-0.2553711-1.368433-0.5195312-2.3437214-0.5195312   C7.3867984,6.0000014,2,6.1962905,2,13.0004902c0,0.0458984,0.0051889,0.0914307,0.0056775,0.1372681   C2.0681896,6.4504409,7.3904004,6.2500014,8.0011768,6.2500014z" fill="#FFFFFF" opacity="0.1"/><path d="M17.0024529,23.7500019c-1.348897,0-2.1249275-0.3154297-2.8101206-0.5932617   c-0.5352612-0.2177734-0.9982424-0.4057617-1.6902733-0.4057617c-0.69203,0-1.1550112,0.1879883-1.6902723,0.4052734   c-0.6851931,0.2783203-1.4612246,0.59375-2.8106098,0.59375c-2.1858535,0-5.9337196-5.3466797-5.9954996-10.8622437   C2.005311,12.927248,2,12.9605122,2,13.0004902c0,5.5639648,3.7971311,10.9995117,6.0011768,10.9995117   c1.3493853,0,2.1254168-0.3154297,2.8106098-0.59375c0.5352612-0.2172852,0.9982424-0.4052734,1.6902723-0.4052734   c0.6920309,0,1.1550121,0.1879883,1.6902733,0.4057617c0.6851931,0.277832,1.4612236,0.5932617,2.8101206,0.5932617   c1.5441265,0,3.7429676-2.6710205,4.9975471-6.1817627c-0.0290585-0.0075073-0.0553093-0.0214233-0.0841846-0.0294189   C20.6443272,21.1890278,18.5137367,23.7500019,17.0024529,23.7500019z" opacity="0.2"/><path d="M16.9794998,0.4421892c-0.2063999,2.7311401-2.2307987,4.7339478-4.9741955,5.3046875   c-0.0027466,0.0865479-0.0038929,0.1655393-0.0030384,0.2531247c2.8421106-0.5820923,4.9035435-2.8775632,4.9974937-5.7393188   C16.9910774,0.3074397,16.9943581,0.3862316,16.9794998,0.4421892z" opacity="0.2"/><path d="M12.0053043,5.7342291c0.0116253-0.0652018,0.0260839-0.2464743,0.0404158-0.3561025   c0.0104027-0.1377368,0.0253725-0.2731414,0.044775-0.4061723c0.3654556-2.5056813,2.3033724-4.1691899,4.9092722-4.7112713   c0.0027466-0.0865479,0.0037231-0.1730957,0.0028687-0.2606812C14.1596107,0.582216,12.0980349,2.8711307,12.0053043,5.7342291z" fill="#FFFFFF" opacity="0.1"/><linearGradient gradientUnits="userSpaceOnUse" id="SVGID_1_" x1="3.3999658" x2="22.5684128" y1="7.8420377" y2="16.7804317"><stop offset="0" style="stop-color:#FFFFFF;stop-opacity:0.2"/><stop offset="1" style="stop-color:#FFFFFF;stop-opacity:0"/></linearGradient><path d="M18.0031376,12.5000019c0-2.1514893,1.2384624-4.0093994,3.038805-4.9132085   c-1.6071281-1.505188-3.6721077-1.586792-4.0390015-1.586792c-0.9752884,0-1.6712255,0.2641602-2.3437204,0.5195312   c-0.651495,0.2475586-1.2668505,0.480957-2.1571617,0.480957s-1.5056658-0.2333984-2.1571608-0.480957   c-0.6724958-0.2553711-1.368433-0.5195312-2.3437214-0.5195312C7.3867984,6.0000014,2,6.1962905,2,13.0004902   c0,5.5639648,3.7971311,10.9995117,6.0011768,10.9995117c1.3493853,0,2.1254168-0.3154297,2.8106098-0.59375   c0.5352612-0.2172852,0.9982424-0.4052734,1.6902723-0.4052734c0.6920309,0,1.1550121,0.1879883,1.6902733,0.4057617   c0.6851931,0.277832,1.4612236,0.5932617,2.8101206,0.5932617c1.5441265,0,3.7429676-2.6710205,4.9975471-6.1817627   C19.6316776,17.2047138,18.0031376,15.0596943,18.0031376,12.5000019z M17.002636,0.0000017   c-2.9296513,0.5999756-5.0296116,3.0148926-5.00037,6C14.9319181,5.3999648,17.0318775,2.9851091,17.002636,0.0000017z" fill="url(#SVGID_1_)"/></g><g/><g/><g/><g/><g/><g/><g/><g/><g/><g/><g/><g/><g/><g/><g/></svg>