<?xml version="1.0" ?><svg enable-background="new 0 0 24 24" id="Layer_1" version="1.1" viewBox="0 0 24 24" xml:space="preserve" xmlns="http://www.w3.org/2000/svg" xmlns:xlink="http://www.w3.org/1999/xlink"><g><polygon fill="#009ADA" points="12,11 23,11 23,1 12,2  "/><polygon fill="#009ADA" points="10,11 10,2.1818237 1,3 1,11  "/><polygon fill="#FFFFFF" opacity="0.2" points="12,2 12,2.25 23,1.25 23,1  "/><rect height="0.25" opacity="0.1" width="11" x="12" y="10.75"/><polygon fill="#FFFFFF" opacity="0.2" points="1,3 1,3.25 10,2.4318237 10,2.1818237  "/><rect height="0.25" opacity="0.1" width="9" x="1" y="10.75"/><polygon fill="#009ADA" points="12,13 23,13 23,23 12,22  "/><polygon fill="#009ADA" points="10,13 10,21.8181763 1,21 1,13  "/><polygon opacity="0.1" points="12,22 12,21.75 23,22.75 23,23  "/><rect fill="#FFFFFF" height="0.25" opacity="0.2" width="11" x="12" y="13"/><polygon opacity="0.1" points="1,21 1,20.75 10,21.5681763 10,21.8181763  "/><rect fill="#FFFFFF" height="0.25" opacity="0.2" width="9" x="1" y="13"/><linearGradient gradientUnits="userSpaceOnUse" id="SVGID_1_" x1="-0.0995096" x2="25.6315994" y1="5.3579059" y2="17.3565197"><stop offset="0" style="stop-color:#FFFFFF;stop-opacity:0.2"/><stop offset="1" style="stop-color:#FFFFFF;stop-opacity:0"/></linearGradient><path d="M12,2v9h11V1L12,2z M1,11h9V2.1818237L1,3V11z M12,22l11,1V13H12V22z M1,21l9,0.8181763V13H1V21z" fill="url(#SVGID_1_)"/></g><g/><g/><g/><g/><g/><g/><g/><g/><g/><g/><g/><g/><g/><g/><g/></svg>